<svg xmlns="http://www.w3.org/2000/svg" width="32" height="32">
    <path style="stroke:none;fill-rule:nonzero;fill:#fff;fill-opacity:1" d="M20.094 2.668h-8.188c-7.465 0-9.238 1.773-9.238 9.238v8.188c0 7.465 1.773 9.238 9.238 9.238h8.188c7.465 0 9.238-1.773 9.238-9.238v-8.188c0-7.465-1.773-9.238-9.238-9.238m4.105 19.023h-1.945c-.734 0-.961-.597-2.254-1.918-1.172-1.105-1.68-1.265-1.96-1.265-.388 0-.505.105-.505.664v1.75c0 .465-.148.758-1.387.758-2.054 0-4.335-1.254-5.933-3.559-2.414-3.387-3.067-5.95-3.067-6.453 0-.281.09-.547.653-.547h1.96c.493 0 .68.211.864.746.96 2.801 2.563 5.2 3.215 5.2.254 0 .36-.122.36-.735v-2.867c-.067-1.305-.774-1.426-.774-1.89 0-.243.187-.454.496-.454h3.05c.415 0 .563.211.563.719v3.851c0 .414.172.563.305.563.238 0 .453-.149.894-.602 1.399-1.558 2.399-3.972 2.399-3.972.133-.282.347-.547.867-.547h1.906c.586 0 .719.308.586.719-.238 1.136-2.613 4.48-2.586 4.48-.215.336-.293.48 0 .867.2.281.88.867 1.332 1.387.828.95 1.469 1.734 1.64 2.281.15.547-.116.824-.679.824Zm0 0"/>
</svg>
