<svg width="25" height="25" viewBox="0 0 25 25" fill="none" xmlns="http://www.w3.org/2000/svg">
<path d="M23.9999 11.6261L13.2836 21.7329C11.9708 22.9711 10.1902 23.6667 8.33363 23.6667C6.47701 23.6667 4.69644 22.9711 3.38361 21.7329C2.07079 20.4948 1.33325 18.8155 1.33325 17.0644C1.33325 15.3134 2.07079 13.6341 3.38361 12.396L14.0999 2.28917C14.9751 1.46373 16.1622 1 17.3999 1C18.6376 1 19.8247 1.46373 20.6999 2.28917C21.5751 3.1146 22.0668 4.23414 22.0668 5.40149C22.0668 6.56883 21.5751 7.68837 20.6999 8.51381L9.97197 18.6206C9.53436 19.0333 8.94084 19.2652 8.32196 19.2652C7.70309 19.2652 7.10957 19.0333 6.67196 18.6206C6.23435 18.2079 5.98851 17.6481 5.98851 17.0644C5.98851 16.4808 6.23435 15.921 6.67196 15.5083L16.572 6.18231" stroke="white" stroke-width="2" stroke-linecap="round" stroke-linejoin="round"/>
</svg>
