<svg width="18" height="18" viewBox="0 0 18 18" fill="none" xmlns="http://www.w3.org/2000/svg">
<g clip-path="url(#clip0_184_419)">
<g filter="url(#filter0_f_184_419)">
<path d="M9.66335 12.408L6.9164 15.155C5.78046 16.291 3.9319 16.2912 2.79583 15.1552C2.24547 14.6048 1.94245 13.8731 1.94245 13.0949C1.94245 12.3167 2.24547 11.5851 2.79563 11.0348C2.79557 11.0348 2.7957 11.0347 2.79563 11.0348L5.54277 8.28758C5.922 7.90829 5.922 7.29331 5.54271 6.91408C5.16347 6.53485 4.5485 6.53485 4.1692 6.91408L1.42226 9.66109C1.42206 9.66128 1.42245 9.66089 1.42226 9.66109C0.505489 10.5782 0 11.7981 0 13.0949C0 14.392 0.505101 15.6114 1.42232 16.5287C2.36907 17.4753 3.61256 17.9487 4.85612 17.9487C6.09967 17.9487 7.34322 17.4753 8.28984 16.5287L11.0368 13.7815C11.4161 13.4023 11.4161 12.7873 11.0368 12.408C10.6576 12.0288 10.0427 12.0288 9.66335 12.408Z" fill="white"/>
<path d="M17.953 4.85379C17.953 3.55669 17.4478 2.33722 16.5306 1.42C14.6372 -0.473365 11.5564 -0.473301 9.66308 1.42C9.66302 1.42013 9.66315 1.41987 9.66308 1.42L6.91595 4.16713C6.53665 4.54636 6.53665 5.1614 6.91595 5.54063C7.10566 5.73035 7.35416 5.82514 7.60273 5.82514C7.85124 5.82514 8.09987 5.73028 8.28945 5.54063L11.0363 2.79382C11.0362 2.79395 11.0364 2.7937 11.0363 2.79382C12.1723 1.65788 14.021 1.6575 15.1571 2.7935C15.7074 3.34386 16.0105 4.07558 16.0105 4.85379C16.0105 5.63193 15.7075 6.36352 15.1573 6.91388C15.1572 6.91394 15.1574 6.91381 15.1573 6.91388L12.4102 9.66108C12.0309 10.0403 12.0309 10.6553 12.4102 11.0346C12.5999 11.2242 12.8484 11.3191 13.0969 11.3191C13.3455 11.3191 13.5941 11.2242 13.7837 11.0346L16.5307 8.28757C16.5305 8.28777 16.5309 8.28738 16.5307 8.28757C17.4474 7.37048 17.953 6.15056 17.953 4.85379Z" fill="white"/>
<path d="M5.54259 12.408C5.73224 12.5977 5.98081 12.6925 6.22931 12.6925C6.47788 12.6925 6.72645 12.5977 6.91609 12.408L12.4101 6.91401C12.7894 6.53478 12.7894 5.9198 12.4101 5.54051C12.0309 5.16128 11.4159 5.16128 11.0366 5.54051L5.54259 11.0345C5.1633 11.4138 5.1633 12.0288 5.54259 12.408Z" fill="white"/>
</g>
<path d="M9.66335 12.408L6.9164 15.155C5.78046 16.291 3.9319 16.2912 2.79583 15.1552C2.24547 14.6048 1.94245 13.8731 1.94245 13.0949C1.94245 12.3167 2.24547 11.5851 2.79563 11.0348C2.79557 11.0348 2.7957 11.0347 2.79563 11.0348L5.54277 8.28758C5.922 7.90829 5.922 7.29331 5.54271 6.91408C5.16347 6.53485 4.5485 6.53485 4.1692 6.91408L1.42226 9.66109C1.42206 9.66128 1.42245 9.66089 1.42226 9.66109C0.505489 10.5782 0 11.7981 0 13.0949C0 14.392 0.505101 15.6114 1.42232 16.5287C2.36907 17.4753 3.61256 17.9487 4.85612 17.9487C6.09967 17.9487 7.34322 17.4753 8.28984 16.5287L11.0368 13.7815C11.4161 13.4023 11.4161 12.7873 11.0368 12.408C10.6576 12.0288 10.0427 12.0288 9.66335 12.408Z" fill="white"/>
<path d="M17.953 4.85379C17.953 3.55669 17.4478 2.33722 16.5306 1.42C14.6372 -0.473365 11.5564 -0.473301 9.66308 1.42C9.66302 1.42013 9.66315 1.41987 9.66308 1.42L6.91595 4.16713C6.53665 4.54636 6.53665 5.1614 6.91595 5.54063C7.10566 5.73035 7.35416 5.82514 7.60273 5.82514C7.85124 5.82514 8.09987 5.73028 8.28945 5.54063L11.0363 2.79382C11.0362 2.79395 11.0364 2.7937 11.0363 2.79382C12.1723 1.65788 14.021 1.6575 15.1571 2.7935C15.7074 3.34386 16.0105 4.07558 16.0105 4.85379C16.0105 5.63193 15.7075 6.36352 15.1573 6.91388C15.1572 6.91394 15.1574 6.91381 15.1573 6.91388L12.4102 9.66108C12.0309 10.0403 12.0309 10.6553 12.4102 11.0346C12.5999 11.2242 12.8484 11.3191 13.0969 11.3191C13.3455 11.3191 13.5941 11.2242 13.7837 11.0346L16.5307 8.28757C16.5305 8.28777 16.5309 8.28738 16.5307 8.28757C17.4474 7.37048 17.953 6.15056 17.953 4.85379Z" fill="white"/>
<path d="M5.54259 12.408C5.73224 12.5977 5.98081 12.6925 6.22931 12.6925C6.47788 12.6925 6.72645 12.5977 6.91609 12.408L12.4101 6.91401C12.7894 6.53478 12.7894 5.9198 12.4101 5.54051C12.0309 5.16128 11.4159 5.16128 11.0366 5.54051L5.54259 11.0345C5.1633 11.4138 5.1633 12.0288 5.54259 12.408Z" fill="white"/>
</g>
<defs>
<filter id="filter0_f_184_419" x="-2" y="-2" width="21.9529" height="21.9487" filterUnits="userSpaceOnUse" color-interpolation-filters="sRGB">
<feFlood flood-opacity="0" result="BackgroundImageFix"/>
<feBlend mode="normal" in="SourceGraphic" in2="BackgroundImageFix" result="shape"/>
<feGaussianBlur stdDeviation="1" result="effect1_foregroundBlur_184_419"/>
</filter>
<clipPath id="clip0_184_419">
<rect width="18" height="18" fill="white"/>
</clipPath>
</defs>
</svg>
