<svg width="23" height="26" viewBox="0 0 23 26" fill="none" xmlns="http://www.w3.org/2000/svg">
<g clip-path="url(#clip0_127_1409)">
<path d="M22.5 17.3333C22.5 22.1217 18.2429 26 12.9869 26C9.11029 26 5.62611 23.8442 4.18725 20.5617L0.584163 12.3175C0.500655 12.1262 0.478717 11.9172 0.520916 11.7149C0.563116 11.5126 0.667707 11.3255 0.822438 11.1755C0.977168 11.0254 1.17563 10.9186 1.39458 10.8677C1.61353 10.8166 1.84389 10.8235 2.0587 10.8875L2.99812 11.1692C3.66403 11.3642 4.21104 11.83 4.47265 12.4258L5.99475 15.9033C6.08988 16.12 6.30392 16.25 6.54175 16.25H7.04119V3.52083C7.04119 3.16169 7.19779 2.81725 7.47655 2.5633C7.75531 2.30934 8.13339 2.16667 8.52761 2.16667C8.92184 2.16667 9.29992 2.30934 9.57867 2.5633C9.85743 2.81725 10.014 3.16169 10.014 3.52083V12.4583C10.014 12.7617 10.2757 13 10.6086 13C10.9416 13 11.2032 12.7617 11.2032 12.4583V1.35417C11.2032 0.99502 11.3598 0.650582 11.6385 0.396627C11.9173 0.142671 12.2954 0 12.6896 0C13.0838 0 13.4619 0.142671 13.7407 0.396627C14.0194 0.650582 14.176 0.99502 14.176 1.35417V12.4583C14.176 12.7617 14.4376 13 14.7706 13C15.1036 13 15.3652 12.7617 15.3652 12.4583V2.97917C15.3652 2.62002 15.5218 2.27558 15.8005 2.02163C16.0793 1.76767 16.4574 1.625 16.8516 1.625C17.2458 1.625 17.6239 1.76767 17.9026 2.02163C18.1814 2.27558 18.338 2.62002 18.338 2.97917V12.4583C18.338 12.7617 18.5996 13 18.9326 13C19.2655 13 19.5272 12.7617 19.5272 12.4583V6.22917C19.5272 5.87002 19.6838 5.52558 19.9625 5.27163C20.2413 5.01767 20.6194 4.875 21.0136 4.875C21.4078 4.875 21.7859 5.01767 22.0646 5.27163C22.3434 5.52558 22.5 5.87002 22.5 6.22917V17.3333Z" fill="white"/>
</g>
<defs>
<clipPath id="clip0_127_1409">
<rect width="22" height="26" fill="white" transform="translate(0.5)"/>
</clipPath>
</defs>
</svg>
