<svg width="369" height="369" viewBox="0 0 369 369" fill="none" xmlns="http://www.w3.org/2000/svg">
<g clip-path="url(#clip0_3160_1723)">
<g filter="url(#filter0_d_3160_1723)">
<path fill-rule="evenodd" clip-rule="evenodd" d="M184.5 341C277.008 341 352 266.008 352 173.5C352 80.9923 277.008 6 184.5 6C91.9923 6 17 80.9923 17 173.5C17 266.008 91.9923 341 184.5 341ZM213.145 103.622C222.479 107.204 230.951 112.572 238.04 119.397C245.085 126.236 250.6 134.377 254.249 143.323C258.083 152.927 259.99 163.138 259.87 173.418C259.977 183.698 258.07 193.906 254.249 203.514C250.635 212.514 245.114 220.7 238.033 227.559C230.953 234.417 222.466 239.799 213.106 243.365C203.121 247.112 192.475 248.981 181.751 248.87H148.994C146.686 248.888 144.398 248.467 142.262 247.63C140.127 246.794 138.186 245.558 136.555 243.997C134.923 242.435 133.632 240.578 132.758 238.534C131.884 236.49 131.443 234.3 131.463 232.092V114.908C131.41 112.655 131.849 110.416 132.751 108.335C133.653 106.253 135 104.375 136.704 102.82C138.335 101.296 140.266 100.097 142.384 99.292C144.503 98.487 146.767 98.092 149.047 98.1299H181.803C192.523 98.0135 203.165 99.8784 213.145 103.622ZM204.497 211.828C210.992 208.115 216.317 202.79 219.906 196.416C223.802 189.334 225.759 181.421 225.593 173.418C225.777 165.395 223.825 157.459 219.919 150.358C216.329 144.043 211.017 138.778 204.55 135.122C197.625 131.357 189.766 129.455 181.803 129.617H166.591V217.395H181.803C189.757 217.558 197.606 215.632 204.497 211.828Z" fill="#FFE600"/>
<path fill-rule="evenodd" clip-rule="evenodd" d="M184.5 341C277.008 341 352 266.008 352 173.5C352 80.9923 277.008 6 184.5 6C91.9923 6 17 80.9923 17 173.5C17 266.008 91.9923 341 184.5 341ZM213.145 103.622C222.479 107.204 230.951 112.572 238.04 119.397C245.085 126.236 250.6 134.377 254.249 143.323C258.083 152.927 259.99 163.138 259.87 173.418C259.977 183.698 258.07 193.906 254.249 203.514C250.635 212.514 245.114 220.7 238.033 227.559C230.953 234.417 222.466 239.799 213.106 243.365C203.121 247.112 192.475 248.981 181.751 248.87H148.994C146.686 248.888 144.398 248.467 142.262 247.63C140.127 246.794 138.186 245.558 136.555 243.997C134.923 242.435 133.632 240.578 132.758 238.534C131.884 236.49 131.443 234.3 131.463 232.092V114.908C131.41 112.655 131.849 110.416 132.751 108.335C133.653 106.253 135 104.375 136.704 102.82C138.335 101.296 140.266 100.097 142.384 99.292C144.503 98.487 146.767 98.092 149.047 98.1299H181.803C192.523 98.0135 203.165 99.8784 213.145 103.622ZM204.497 211.828C210.992 208.115 216.317 202.79 219.906 196.416C223.802 189.334 225.759 181.421 225.593 173.418C225.777 165.395 223.825 157.459 219.919 150.358C216.329 144.043 211.017 138.778 204.55 135.122C197.625 131.357 189.766 129.455 181.803 129.617H166.591V217.395H181.803C189.757 217.558 197.606 215.632 204.497 211.828Z" fill="url(#paint0_radial_3160_1723)"/>
<path fill-rule="evenodd" clip-rule="evenodd" d="M184.5 341C277.008 341 352 266.008 352 173.5C352 80.9923 277.008 6 184.5 6C91.9923 6 17 80.9923 17 173.5C17 266.008 91.9923 341 184.5 341ZM213.145 103.622C222.479 107.204 230.951 112.572 238.04 119.397C245.085 126.236 250.6 134.377 254.249 143.323C258.083 152.927 259.99 163.138 259.87 173.418C259.977 183.698 258.07 193.906 254.249 203.514C250.635 212.514 245.114 220.7 238.033 227.559C230.953 234.417 222.466 239.799 213.106 243.365C203.121 247.112 192.475 248.981 181.751 248.87H148.994C146.686 248.888 144.398 248.467 142.262 247.63C140.127 246.794 138.186 245.558 136.555 243.997C134.923 242.435 133.632 240.578 132.758 238.534C131.884 236.49 131.443 234.3 131.463 232.092V114.908C131.41 112.655 131.849 110.416 132.751 108.335C133.653 106.253 135 104.375 136.704 102.82C138.335 101.296 140.266 100.097 142.384 99.292C144.503 98.487 146.767 98.092 149.047 98.1299H181.803C192.523 98.0135 203.165 99.8784 213.145 103.622ZM204.497 211.828C210.992 208.115 216.317 202.79 219.906 196.416C223.802 189.334 225.759 181.421 225.593 173.418C225.777 165.395 223.825 157.459 219.919 150.358C216.329 144.043 211.017 138.778 204.55 135.122C197.625 131.357 189.766 129.455 181.803 129.617H166.591V217.395H181.803C189.757 217.558 197.606 215.632 204.497 211.828Z" fill="url(#paint1_linear_3160_1723)"/>
</g>
<path fill-rule="evenodd" clip-rule="evenodd" d="M184.5 320.278C265.563 320.278 331.278 254.563 331.278 173.5C331.278 92.4366 265.563 26.7217 184.5 26.7217C103.436 26.7217 37.7214 92.4366 37.7214 173.5C37.7214 254.563 103.436 320.278 184.5 320.278ZM213.144 103.622C222.479 107.203 230.95 112.571 238.04 119.397C245.084 126.236 250.599 134.377 254.248 143.323C258.083 152.927 259.99 163.137 259.869 173.418C259.976 183.698 258.069 193.906 254.248 203.514C250.634 212.513 245.113 220.7 238.033 227.558C230.952 234.417 222.465 239.798 213.105 243.365C203.121 247.112 192.475 248.981 181.75 248.87H148.993C146.686 248.888 144.397 248.467 142.262 247.63C140.126 246.793 138.186 245.558 136.554 243.997C134.922 242.435 133.632 240.578 132.757 238.534C131.883 236.49 131.443 234.3 131.462 232.092V114.908C131.409 112.655 131.848 110.416 132.75 108.335C133.653 106.253 134.999 104.375 136.703 102.82C138.334 101.296 140.265 100.097 142.384 99.2918C144.502 98.4868 146.767 98.0918 149.046 98.1296H181.803C192.522 98.0132 203.164 99.8781 213.144 103.622ZM204.497 211.827C210.992 208.115 216.316 202.79 219.906 196.416C223.802 189.333 225.758 181.421 225.592 173.418C225.777 165.395 223.824 157.459 219.919 150.358C216.328 144.043 211.017 138.778 204.549 135.122C197.625 131.357 189.765 129.455 181.803 129.617H166.59V217.395H181.803C189.757 217.558 197.605 215.632 204.497 211.827Z" fill="url(#paint2_linear_3160_1723)"/>
<g filter="url(#filter1_dii_3160_1723)">
<path d="M322.644 173.5C322.644 249.795 260.795 311.645 184.5 311.645C108.205 311.645 46.3555 249.795 46.3555 173.5C46.3555 97.2053 108.205 35.356 184.5 35.356C260.795 35.356 322.644 97.2053 322.644 173.5Z" fill="url(#paint3_radial_3160_1723)"/>
<path d="M322.644 173.5C322.644 249.795 260.795 311.645 184.5 311.645C108.205 311.645 46.3555 249.795 46.3555 173.5C46.3555 97.2053 108.205 35.356 184.5 35.356C260.795 35.356 322.644 97.2053 322.644 173.5Z" fill="url(#paint4_radial_3160_1723)"/>
</g>
<g filter="url(#filter2_d_3160_1723)">
<path d="M238.04 119.397C230.951 112.571 222.479 107.203 213.145 103.622C203.164 99.8781 192.523 98.0132 181.803 98.1296H149.046C146.767 98.0918 144.503 98.4868 142.384 99.2918C140.266 100.097 138.335 101.296 136.704 102.82C135 104.375 133.653 106.253 132.751 108.335C131.848 110.416 131.41 112.655 131.463 114.908V232.092C131.443 234.3 131.884 236.49 132.758 238.534C133.632 240.578 134.923 242.435 136.555 243.997C138.186 245.558 140.127 246.793 142.262 247.63C144.398 248.467 146.686 248.888 148.994 248.87H181.751C192.475 248.981 203.121 247.112 213.106 243.365C222.465 239.798 230.953 234.417 238.033 227.558C245.114 220.7 250.635 212.513 254.248 203.514C258.07 193.906 259.977 183.698 259.87 173.418C259.99 163.137 258.083 152.927 254.248 143.323C250.6 134.377 245.085 126.236 238.04 119.397ZM219.906 196.416C216.317 202.79 210.992 208.115 204.497 211.827C197.606 215.632 189.757 217.558 181.803 217.395H166.591V129.617H181.803C189.765 129.455 197.625 131.357 204.55 135.122C211.017 138.778 216.329 144.043 219.919 150.358C223.825 157.459 225.777 165.395 225.593 173.418C225.759 181.421 223.802 189.333 219.906 196.416Z" fill="url(#paint5_linear_3160_1723)"/>
</g>
</g>
<defs>
<filter id="filter0_d_3160_1723" x="-3" y="-3" width="375" height="375" filterUnits="userSpaceOnUse" color-interpolation-filters="sRGB">
<feFlood flood-opacity="0" result="BackgroundImageFix"/>
<feColorMatrix in="SourceAlpha" type="matrix" values="0 0 0 0 0 0 0 0 0 0 0 0 0 0 0 0 0 0 127 0" result="hardAlpha"/>
<feOffset dy="11"/>
<feGaussianBlur stdDeviation="10"/>
<feComposite in2="hardAlpha" operator="out"/>
<feColorMatrix type="matrix" values="0 0 0 0 0.216667 0 0 0 0 0.244833 0 0 0 0 0.270833 0 0 0 0.32 0"/>
<feBlend mode="normal" in2="BackgroundImageFix" result="effect1_dropShadow_3160_1723"/>
<feBlend mode="normal" in="SourceGraphic" in2="effect1_dropShadow_3160_1723" result="shape"/>
</filter>
<filter id="filter1_dii_3160_1723" x="14.3555" y="7.35596" width="340.289" height="340.289" filterUnits="userSpaceOnUse" color-interpolation-filters="sRGB">
<feFlood flood-opacity="0" result="BackgroundImageFix"/>
<feColorMatrix in="SourceAlpha" type="matrix" values="0 0 0 0 0 0 0 0 0 0 0 0 0 0 0 0 0 0 127 0" result="hardAlpha"/>
<feOffset dy="4"/>
<feGaussianBlur stdDeviation="16"/>
<feComposite in2="hardAlpha" operator="out"/>
<feColorMatrix type="matrix" values="0 0 0 0 0.1625 0 0 0 0 0.74875 0 0 0 0 1 0 0 0 0.25 0"/>
<feBlend mode="normal" in2="BackgroundImageFix" result="effect1_dropShadow_3160_1723"/>
<feBlend mode="normal" in="SourceGraphic" in2="effect1_dropShadow_3160_1723" result="shape"/>
<feColorMatrix in="SourceAlpha" type="matrix" values="0 0 0 0 0 0 0 0 0 0 0 0 0 0 0 0 0 0 127 0" result="hardAlpha"/>
<feOffset dy="4"/>
<feGaussianBlur stdDeviation="12"/>
<feComposite in2="hardAlpha" operator="arithmetic" k2="-1" k3="1"/>
<feColorMatrix type="matrix" values="0 0 0 0 0.354167 0 0 0 0 0.57375 0 0 0 0 1 0 0 0 1 0"/>
<feBlend mode="normal" in2="shape" result="effect2_innerShadow_3160_1723"/>
<feColorMatrix in="SourceAlpha" type="matrix" values="0 0 0 0 0 0 0 0 0 0 0 0 0 0 0 0 0 0 127 0" result="hardAlpha"/>
<feOffset/>
<feGaussianBlur stdDeviation="15"/>
<feComposite in2="hardAlpha" operator="arithmetic" k2="-1" k3="1"/>
<feColorMatrix type="matrix" values="0 0 0 0 0 0 0 0 0 0.4 0 0 0 0 1 0 0 0 1 0"/>
<feBlend mode="normal" in2="effect2_innerShadow_3160_1723" result="effect3_innerShadow_3160_1723"/>
</filter>
<filter id="filter2_d_3160_1723" x="127.459" y="98.1245" width="136.417" height="158.75" filterUnits="userSpaceOnUse" color-interpolation-filters="sRGB">
<feFlood flood-opacity="0" result="BackgroundImageFix"/>
<feColorMatrix in="SourceAlpha" type="matrix" values="0 0 0 0 0 0 0 0 0 0 0 0 0 0 0 0 0 0 127 0" result="hardAlpha"/>
<feOffset dy="4"/>
<feGaussianBlur stdDeviation="2"/>
<feComposite in2="hardAlpha" operator="out"/>
<feColorMatrix type="matrix" values="0 0 0 0 0.199924 0 0 0 0 0.126476 0 0 0 0 0.576346 0 0 0 0.3 0"/>
<feBlend mode="normal" in2="BackgroundImageFix" result="effect1_dropShadow_3160_1723"/>
<feBlend mode="normal" in="SourceGraphic" in2="effect1_dropShadow_3160_1723" result="shape"/>
</filter>
<radialGradient id="paint0_radial_3160_1723" cx="0" cy="0" r="1" gradientUnits="userSpaceOnUse" gradientTransform="translate(184.5 173.5) rotate(-36.8699) scale(172.68 170.019)">
<stop stop-color="#FFEAA9"/>
<stop offset="0.234375" stop-color="#FFC100" stop-opacity="0.45"/>
<stop offset="0.458333" stop-color="#D7AE2D" stop-opacity="0.46"/>
<stop offset="0.626142" stop-color="#FEF0C3"/>
<stop offset="0.688837" stop-color="#FFF2CB"/>
<stop offset="0.791667" stop-color="#FDD65B"/>
<stop offset="1" stop-color="#FBD96E"/>
</radialGradient>
<linearGradient id="paint1_linear_3160_1723" x1="46.356" y1="277.108" x2="322.644" y2="69.892" gradientUnits="userSpaceOnUse">
<stop stop-color="#FFEAA9"/>
<stop offset="0.234375" stop-color="#FFC100" stop-opacity="0.45"/>
<stop offset="0.458333" stop-color="#D7AE2D" stop-opacity="0.46"/>
<stop offset="0.626142" stop-color="#FEF0C3"/>
<stop offset="0.688837" stop-color="#FFF2CB"/>
<stop offset="0.791667" stop-color="#FDD65B"/>
<stop offset="1" stop-color="#FFF5D5"/>
</linearGradient>
<linearGradient id="paint2_linear_3160_1723" x1="184.5" y1="26.7217" x2="184.5" y2="320.278" gradientUnits="userSpaceOnUse">
<stop stop-color="#208DBF"/>
<stop offset="1" stop-color="#93D2F8"/>
</linearGradient>
<radialGradient id="paint3_radial_3160_1723" cx="0" cy="0" r="1" gradientUnits="userSpaceOnUse" gradientTransform="translate(-5.44869 282.562) rotate(-22.3504) scale(475.61)">
<stop offset="0.421875" stop-color="#11D4FF"/>
<stop offset="1" stop-color="#0EFFD4"/>
</radialGradient>
<radialGradient id="paint4_radial_3160_1723" cx="0" cy="0" r="1" gradientUnits="userSpaceOnUse" gradientTransform="translate(131.832 99.2477) rotate(-26.2587) scale(216.619 114.681)">
<stop stop-color="#AAFCFF"/>
<stop offset="1" stop-color="white" stop-opacity="0"/>
</radialGradient>
<linearGradient id="paint5_linear_3160_1723" x1="195.667" y1="98.1245" x2="195.667" y2="248.875" gradientUnits="userSpaceOnUse">
<stop stop-color="#02A4D4"/>
<stop offset="1" stop-color="#0085AD"/>
</linearGradient>
<clipPath id="clip0_3160_1723">
<rect width="369" height="369" fill="white"/>
</clipPath>
</defs>
</svg>
