<svg width="147" height="42" viewBox="0 0 147 42" fill="none" xmlns="http://www.w3.org/2000/svg">
<path d="M59.6828 18.4068C58.484 17.1794 57.0514 16.2141 55.4731 15.5701C53.7854 14.8969 51.9859 14.5615 50.1733 14.5825H44.6342C44.2489 14.5757 43.866 14.6467 43.5077 14.7914C43.1495 14.9362 42.823 15.1518 42.5471 15.4258C42.259 15.7055 42.0313 16.0433 41.8787 16.4175C41.7261 16.7918 41.6519 17.1944 41.6609 17.5995V38.6717C41.6576 39.0688 41.7321 39.4626 41.8799 39.8302C42.0278 40.1977 42.246 40.5316 42.5219 40.8125C42.7979 41.0933 43.1259 41.3154 43.4871 41.4658C43.8482 41.6163 44.2352 41.6921 44.6254 41.6888H50.1644C51.9779 41.7088 53.7781 41.3727 55.4664 40.6989C57.0491 40.0575 58.4842 39.0898 59.6816 37.8565C60.8789 36.6232 61.8124 35.1511 62.4235 33.5328C63.0697 31.8051 63.3921 29.9695 63.374 28.121C63.3944 26.2722 63.072 24.4362 62.4235 22.7092C61.8065 21.1005 60.874 19.6366 59.6828 18.4068ZM56.6163 32.2565C56.0094 33.4026 55.109 34.3601 54.0108 35.0278C52.8455 35.7119 51.5183 36.0582 50.1733 36.0289H47.601V20.2446H50.1733C51.5197 20.2154 52.8487 20.5574 54.0196 21.2345C55.1133 21.8919 56.0114 22.8387 56.6186 23.9742C57.279 25.2512 57.6091 26.6782 57.5779 28.121C57.606 29.56 57.2752 30.9828 56.6163 32.2565Z" fill="white"/>
<path d="M82.4217 20.3664C83.1823 20.391 83.9223 20.1127 84.4844 19.5907C84.7661 19.3254 84.9891 19.0023 85.1389 18.6427C85.2886 18.2832 85.3616 17.8953 85.353 17.5049C85.3639 17.1129 85.2943 16.7228 85.1485 16.3598C85.0028 15.9967 84.7841 15.6686 84.5066 15.3966C84.2298 15.1265 83.9028 14.9153 83.5448 14.7755C83.1868 14.6358 82.805 14.5701 82.4217 14.5825H68.5962C68.2107 14.576 67.8277 14.6474 67.4694 14.7926C67.1112 14.9377 66.7847 15.1537 66.5091 15.4281C66.2208 15.7072 65.993 16.0445 65.8404 16.4185C65.6878 16.7925 65.6136 17.1948 65.6228 17.5996V38.6718C65.6199 39.0688 65.6945 39.4625 65.8425 39.8299C65.9904 40.1973 66.2087 40.5311 66.4845 40.8118C66.7604 41.0926 67.0884 41.3147 67.4494 41.4653C67.8104 41.6158 68.1972 41.6918 68.5873 41.6888H82.4217C82.8039 41.7012 83.1847 41.636 83.5419 41.497C83.8991 41.358 84.2256 41.1481 84.5022 40.8793C84.7812 40.6072 85.001 40.2786 85.1476 39.9147C85.2941 39.5507 85.3641 39.1596 85.353 38.7665C85.363 38.3758 85.2907 37.9876 85.1409 37.6278C84.991 37.268 84.7672 36.945 84.4844 36.6807C83.9219 36.1591 83.1824 35.8802 82.4217 35.9027H71.5651V30.9171H78.9698C79.3523 30.9298 79.7336 30.8647 80.0912 30.7258C80.4488 30.5868 80.7756 30.3766 81.0524 30.1076C81.3291 29.8408 81.5478 29.5179 81.6943 29.1599C81.8409 28.8018 81.912 28.4164 81.9032 28.0286C81.9104 27.6414 81.839 27.2569 81.6933 26.8991C81.5477 26.5414 81.331 26.2181 81.0569 25.9495C80.7795 25.6797 80.4521 25.4687 80.0937 25.329C79.7354 25.1892 79.3533 25.1235 78.9698 25.1355H71.5496V20.3664H82.4217Z" fill="white"/>
<path d="M103.818 20.3663C104.579 20.391 105.32 20.1128 105.883 19.5906C106.165 19.3253 106.388 19.0022 106.537 18.6427C106.687 18.2831 106.76 17.8952 106.751 17.5048C106.762 17.1126 106.693 16.7224 106.548 16.3591C106.402 15.9957 106.184 15.6671 105.907 15.3942C105.629 15.1251 105.302 14.9147 104.944 14.7754C104.585 14.636 104.203 14.5705 103.82 14.5824H89.9946C89.6091 14.5757 89.226 14.647 88.8677 14.7921C88.5094 14.9373 88.183 15.1534 87.9075 15.428C87.6192 15.7071 87.3914 16.0445 87.2388 16.4184C87.0862 16.7924 87.0121 17.1947 87.0213 17.5995V38.6717C87.0183 39.0687 87.093 39.4624 87.2409 39.8298C87.3889 40.1972 87.6071 40.531 87.883 40.8118C88.1588 41.0925 88.4868 41.3146 88.8478 41.4652C89.2088 41.6158 89.5956 41.6918 89.9858 41.6887H103.809C104.192 41.7014 104.574 41.6362 104.932 41.4968C105.29 41.3574 105.617 41.1467 105.894 40.877C106.172 40.605 106.392 40.2767 106.538 39.9132C106.684 39.5496 106.754 39.159 106.743 38.7664C106.752 38.3753 106.679 37.9867 106.529 37.6266C106.379 37.2665 106.155 36.9432 105.872 36.6783C105.309 36.1578 104.569 35.8797 103.809 35.9026H92.9525V30.917H100.368C100.75 30.9294 101.131 30.8642 101.488 30.7252C101.846 30.5862 102.172 30.3763 102.449 30.1075C102.726 29.8409 102.944 29.5181 103.091 29.1599C103.237 28.8018 103.309 28.4163 103.299 28.0285C103.307 27.6412 103.236 27.2566 103.09 26.8987C102.945 26.5409 102.728 26.2177 102.453 25.9495C102.176 25.6794 101.849 25.4682 101.491 25.3284C101.133 25.1887 100.751 25.123 100.368 25.1354H92.9591V20.3663H103.818Z" fill="white"/>
<path d="M124.036 35.6547H114.338V17.5996C114.341 17.2024 114.267 16.8086 114.119 16.4411C113.971 16.0736 113.753 15.7396 113.477 15.4588C113.201 15.178 112.873 14.9559 112.512 14.8054C112.151 14.655 111.764 14.5792 111.373 14.5825C110.988 14.5776 110.605 14.6526 110.249 14.803C109.893 14.9535 109.571 15.1761 109.302 15.4574C109.023 15.7362 108.803 16.07 108.654 16.4382C108.506 16.8065 108.433 17.2017 108.44 17.5996V38.6717C108.433 39.064 108.502 39.4539 108.645 39.8185C108.787 40.1832 108.999 40.5154 109.269 40.7959C109.538 41.0873 109.865 41.318 110.227 41.4734C110.59 41.6287 110.98 41.7052 111.373 41.6978H124.036C124.822 41.6978 125.576 41.38 126.132 40.8141C126.688 40.2483 127 39.4809 127 38.6808C127 37.8806 126.688 37.1132 126.132 36.5474C125.576 35.9816 124.822 35.6637 124.036 35.6637V35.6547Z" fill="white"/>
<path d="M144.519 27.5685C142.944 26.1118 140.77 25.2324 138.059 24.955C136.638 24.8084 135.562 24.5582 134.861 24.2154C134.285 23.9313 133.889 23.6179 133.718 23.3134C133.526 22.9794 133.424 22.6 133.421 22.213C133.397 21.9053 133.464 21.5971 133.613 21.3281C133.761 21.059 133.986 20.8411 134.257 20.7023C135.028 20.2513 136.018 20.0258 137.203 20.0258H137.37C137.966 20.0106 138.561 20.1021 139.127 20.2964C139.574 20.4606 139.989 20.705 140.352 21.0179C140.719 21.3512 141.025 21.7473 141.258 22.1882C141.649 22.8844 142.287 23.4016 143.042 23.6336C143.328 23.7264 143.627 23.7751 143.928 23.778C144.466 23.7788 144.994 23.6222 145.448 23.327C145.784 23.1164 146.069 22.8312 146.282 22.4927C146.494 22.1541 146.629 21.771 146.675 21.372C146.757 20.5936 146.562 19.811 146.126 19.1667C145.566 18.2231 144.87 17.3709 144.061 16.6389C143.218 15.8898 142.248 15.3044 141.198 14.9116C139.999 14.4811 138.734 14.2719 137.463 14.2938C135.821 14.2751 134.19 14.5593 132.648 15.1326C131.22 15.6507 129.957 16.5522 128.992 17.7416C128.027 18.9802 127.518 20.5241 127.554 22.1048C127.554 24.3935 128.441 26.3305 130.213 27.8661C131.875 29.3183 134.135 30.1932 136.929 30.4683C138.533 30.6397 139.658 31.0478 140.27 31.6769C140.881 32.306 141.136 32.9216 141.136 33.6612C141.161 34.1237 141.01 34.5783 140.715 34.9308C140.319 35.3713 139.82 35.7032 139.264 35.8959C138.549 36.1583 137.794 36.2881 137.035 36.2792C136.33 36.2824 135.628 36.1689 134.959 35.9432C134.373 35.7554 133.822 35.4704 133.328 35.0999C132.994 34.8614 132.719 34.5463 132.526 34.1799C132.234 33.5362 131.745 33.0056 131.133 32.6668C130.698 32.42 130.21 32.2896 129.712 32.288C129.196 32.293 128.69 32.4276 128.237 32.6797C127.784 32.9319 127.4 33.2938 127.118 33.7334C126.903 34.1046 126.782 34.5243 126.766 34.9549C126.749 35.3855 126.838 35.8134 127.025 36.2003C127.54 37.4083 128.332 38.4736 129.333 39.3075C130.378 40.1853 131.572 40.8609 132.856 41.3009C134.201 41.7691 135.614 42.0053 137.035 41.9999C138.239 42.0008 139.438 41.837 140.6 41.5128C141.744 41.1957 142.824 40.6759 143.79 39.9772C144.744 39.2778 145.536 38.3742 146.11 37.33C146.719 36.174 147.024 34.8777 146.996 33.5665C147.001 31.1177 146.166 29.0883 144.519 27.5685Z" fill="white"/>
<path d="M20.2978 13.1191C21.5725 13.1191 22.8187 12.7344 23.8786 12.0136C24.9385 11.2928 25.7646 10.2684 26.2524 9.06977C26.7402 7.87117 26.8679 6.55227 26.6192 5.27984C26.3705 4.00741 25.7567 2.83862 24.8553 1.92125C23.9539 1.00388 22.8055 0.379144 21.5552 0.126043C20.3049 -0.127059 19.009 0.0028422 17.8313 0.499318C16.6536 0.995794 15.647 1.83655 14.9388 2.91526C14.2305 3.99397 13.8525 5.26219 13.8525 6.55954C13.8537 8.29887 14.5331 9.96663 15.7416 11.1965C16.9501 12.4264 18.5888 13.1179 20.2978 13.1191ZM20.2978 3.12531C20.9657 3.12531 21.6186 3.32692 22.174 3.70462C22.7293 4.08233 23.1621 4.61917 23.4176 5.24723C23.6731 5.8753 23.7398 6.56638 23.6094 7.23305C23.4789 7.89973 23.1571 8.51205 22.6846 8.99256C22.2122 9.47307 21.6103 9.80019 20.9552 9.93253C20.3 10.0649 19.621 9.9965 19.0041 9.73605C18.3871 9.4756 17.8599 9.03479 17.4892 8.46937C17.1184 7.90394 16.9207 7.23931 16.9212 6.55954C16.9218 5.64852 17.2778 4.77502 17.9109 4.13104C18.5441 3.48706 19.4026 3.12531 20.2978 3.12531Z" fill="white"/>
<path d="M32.224 18.249C28.8674 15.9084 24.4428 14.6209 19.7634 14.6209C17.2521 14.6143 14.7547 15.0006 12.3587 15.7663L11.7849 15.0312C11.3627 14.4873 10.7794 14.0965 10.1217 13.9167C9.46391 13.7369 8.76672 13.7778 8.13359 14.0333C7.50046 14.2887 6.96515 14.7452 6.60712 15.3348C6.24909 15.9245 6.08743 16.6159 6.14614 17.3065C6.14614 17.3065 6.23698 18.3978 6.29016 19.0157C5.02707 20.0292 3.95701 21.2696 3.13289 22.6754H2.57012C1.88905 22.676 1.236 22.9515 0.754201 23.4414C0.2724 23.9313 0.00117301 24.5957 0 25.2888L0 30.7593C0.00117301 31.4524 0.2724 32.1168 0.754201 32.6067C1.236 33.0966 1.88905 33.3721 2.57012 33.3727H3.30128C4.26208 34.9184 5.5135 36.2556 6.98365 37.3075V39.9571C6.98713 40.4942 7.19834 41.0083 7.57154 41.3882C7.94475 41.768 8.44993 41.9829 8.97771 41.9865H13.2937C13.6862 41.9845 14.0696 41.8662 14.397 41.6459C14.7244 41.4256 14.9816 41.113 15.1371 40.7463C18.2125 41.3304 21.3674 41.3304 24.4428 40.7463C24.598 41.1132 24.8552 41.426 25.1826 41.6463C25.5101 41.8666 25.8936 41.9848 26.2862 41.9865H30.5756C31.1053 41.9859 31.6133 41.7722 31.9889 41.3921C32.3645 41.012 32.5772 40.4961 32.5807 39.9571V37.3278C35.9507 34.8474 37.865 31.438 37.8451 27.9091C37.834 24.193 35.8421 20.7632 32.224 18.249ZM29.5409 36.1169V38.9175H27.1037L26.8822 37.8262C26.8594 37.7194 26.8151 37.6187 26.7522 37.5302C26.6893 37.4417 26.6091 37.3674 26.5166 37.312C26.4254 37.2558 26.3238 37.2196 26.2181 37.2056C26.1125 37.1916 26.0051 37.2002 25.9029 37.2309C21.9127 38.4139 17.6738 38.4139 13.6837 37.2309C13.5821 37.1992 13.475 37.1899 13.3696 37.2035C13.2642 37.2171 13.1628 37.2534 13.0722 37.3098C12.9796 37.3651 12.8993 37.4393 12.8364 37.5278C12.7735 37.6163 12.7293 37.7171 12.7066 37.8239L12.474 38.9243H10.0368V36.1012C10.0363 35.9596 9.99947 35.8205 9.9299 35.6979C9.86033 35.5753 9.76045 35.4733 9.64018 35.4021C7.61953 34.1349 6.13506 32.5294 5.36403 30.757C5.30379 30.6165 5.20467 30.497 5.07876 30.4129C4.95286 30.3288 4.80562 30.2838 4.65503 30.2835H3.02876V25.7511H4.53095C4.68537 25.7522 4.83645 25.7054 4.96395 25.6167C5.09145 25.528 5.1893 25.4018 5.24438 25.255C5.92458 23.5616 7.23844 22.0057 9.07076 20.7452C9.18772 20.6644 9.28127 20.5532 9.34167 20.4231C9.40206 20.293 9.4271 20.1489 9.41419 20.0056C9.33885 19.1036 9.25023 18.0348 9.16382 17.0381C9.16089 17.0081 9.16755 16.978 9.18281 16.9522C9.19807 16.9264 9.22111 16.9063 9.2485 16.8949C9.27589 16.8835 9.30617 16.8814 9.33483 16.8889C9.36348 16.8964 9.38899 16.9132 9.40754 16.9366L11.0006 18.9661C11.1045 19.0962 11.2461 19.1895 11.4053 19.2328C11.5644 19.2762 11.733 19.2672 11.8868 19.2073C14.3915 18.1904 17.0668 17.6795 19.7634 17.7033C23.8379 17.7033 27.6576 18.8037 30.5114 20.7948C33.2787 22.7182 34.803 25.246 34.803 27.9091C34.8185 30.748 33.0305 33.4832 29.9131 35.4247C29.7979 35.4978 29.7032 35.6 29.638 35.7212C29.5728 35.8424 29.5393 35.9787 29.5409 36.1169Z" fill="white"/>
<path d="M23.6293 20.4001H16.9647C16.6137 20.4146 16.2818 20.5666 16.0384 20.8245C15.7951 21.0823 15.6592 21.426 15.6592 21.7835C15.6592 22.1411 15.7951 22.4847 16.0384 22.7426C16.2818 23.0004 16.6137 23.1525 16.9647 23.1669H23.6293C23.9803 23.1525 24.3122 23.0004 24.5555 22.7426C24.7989 22.4847 24.9348 22.1411 24.9348 21.7835C24.9348 21.426 24.7989 21.0823 24.5555 20.8245C24.3122 20.5666 23.9803 20.4146 23.6293 20.4001Z" fill="white"/>
<path d="M10.1319 23.5661C9.78131 23.5661 9.43861 23.6719 9.14713 23.8701C8.85564 24.0683 8.62846 24.3501 8.4943 24.6797C8.36014 25.0093 8.32504 25.372 8.39343 25.722C8.46183 26.0719 8.63064 26.3933 8.87853 26.6456C9.12642 26.8979 9.44225 27.0697 9.78608 27.1393C10.1299 27.2089 10.4863 27.1732 10.8102 27.0366C11.1341 26.9001 11.4109 26.6689 11.6057 26.3722C11.8004 26.0756 11.9044 25.7268 11.9044 25.37C11.9044 24.8916 11.7176 24.4328 11.3852 24.0945C11.0528 23.7562 10.602 23.5661 10.1319 23.5661Z" fill="white"/>
</svg>
