<svg width="22" height="30" viewBox="0 0 22 30" fill="none" xmlns="http://www.w3.org/2000/svg">
<path d="M22 20C22 25.525 17.7429 30 12.4869 30C8.61029 30 5.12611 27.5125 3.68725 23.725L0.0841627 14.2125C0.000655172 13.9918 -0.0212834 13.7506 0.0209164 13.5172C0.0631162 13.2838 0.167707 13.0679 0.322438 12.8948C0.477168 12.7216 0.675632 12.5984 0.89458 12.5396C1.11353 12.4807 1.34389 12.4887 1.5587 12.5625L2.49812 12.8875C3.16403 13.1125 3.71104 13.65 3.97265 14.3375L5.49475 18.35C5.58988 18.6 5.80392 18.75 6.04175 18.75H6.54119V4.0625C6.54119 3.6481 6.69779 3.25067 6.97655 2.95765C7.25531 2.66462 7.63339 2.5 8.02761 2.5C8.42184 2.5 8.79992 2.66462 9.07867 2.95765C9.35743 3.25067 9.51404 3.6481 9.51404 4.0625V14.375C9.51404 14.725 9.77565 15 10.1086 15C10.4416 15 10.7032 14.725 10.7032 14.375V1.5625C10.7032 1.1481 10.8598 0.750671 11.1385 0.457646C11.4173 0.16462 11.7954 0 12.1896 0C12.5838 0 12.9619 0.16462 13.2407 0.457646C13.5194 0.750671 13.676 1.1481 13.676 1.5625V14.375C13.676 14.725 13.9376 15 14.2706 15C14.6036 15 14.8652 14.725 14.8652 14.375V3.4375C14.8652 3.0231 15.0218 2.62567 15.3005 2.33265C15.5793 2.03962 15.9574 1.875 16.3516 1.875C16.7458 1.875 17.1239 2.03962 17.4026 2.33265C17.6814 2.62567 17.838 3.0231 17.838 3.4375V14.375C17.838 14.725 18.0996 15 18.4326 15C18.7655 15 19.0272 14.725 19.0272 14.375V7.1875C19.0272 6.7731 19.1838 6.37567 19.4625 6.08265C19.7413 5.78962 20.1194 5.625 20.5136 5.625C20.9078 5.625 21.2859 5.78962 21.5646 6.08265C21.8434 6.37567 22 6.7731 22 7.1875V20Z" fill="white"/>
</svg>
