<svg width="11" height="13" viewBox="0 0 11 13" fill="none" xmlns="http://www.w3.org/2000/svg">
    <path d="M8.36846 3.20968V2.04839C8.36846 1.84306 8.28252 1.64614 8.12953 1.50095C7.97654 1.35576 7.76905 1.27419 7.55269 1.27419C7.33634 1.27419 7.12884 1.35576 6.97586 1.50095C6.82287 1.64614 6.73692 1.84306 6.73692 2.04839V1.27419C6.73692 1.06886 6.65098 0.871945 6.49799 0.726756C6.345 0.581567 6.13751 0.5 5.92116 0.5C5.7048 0.5 5.49731 0.581567 5.34432 0.726756C5.19133 0.871945 5.10539 1.06886 5.10539 1.27419V2.43548C5.10539 2.23015 5.01944 2.03324 4.86645 1.88805C4.71347 1.74286 4.50597 1.66129 4.28962 1.66129C4.07326 1.66129 3.86577 1.74286 3.71278 1.88805C3.5598 2.03324 3.47385 2.23015 3.47385 2.43548V7.08064L3.04394 6.06181C2.9356 5.8044 2.73569 5.59114 2.47893 5.45905C2.22217 5.32696 1.92477 5.28438 1.63837 5.33871C1.51865 5.36149 1.40608 5.41014 1.30939 5.4809C1.21269 5.55165 1.13448 5.64261 1.08083 5.74669C1.02717 5.85078 0.999518 5.9652 1.00001 6.08108C1.00049 6.19695 1.02912 6.31116 1.08365 6.41484L2.65808 9.40323L2.68255 9.49613C3.14754 11.2613 4.81987 12.5 6.73692 12.5C7.60235 12.5 8.43232 12.1737 9.04427 11.593C9.65621 11.0122 10 10.2245 10 9.40323V3.20968C10 3.00435 9.91405 2.80743 9.76107 2.66224C9.60808 2.51705 9.40059 2.43548 9.18423 2.43548C8.96788 2.43548 8.76038 2.51705 8.6074 2.66224C8.45441 2.80743 8.36846 3.00435 8.36846 3.20968ZM8.36846 3.20968V6.30645M5.10539 1.66129V6.30645M6.73692 1.66129V5.53226" stroke="white" stroke-width="0.5" stroke-linecap="round" stroke-linejoin="round"/>
</svg>
